<?xml version="1.0" standalone="no"?>
<!DOCTYPE svg PUBLIC "-//W3C//DTD SVG 20010904//EN"
 "http://www.w3.org/TR/2001/REC-SVG-20010904/DTD/svg10.dtd">
<svg version="1.0" xmlns="http://www.w3.org/2000/svg"
 width="559.000000pt" height="559.000000pt" viewBox="0 0 559.000000 559.000000"
 preserveAspectRatio="xMidYMid meet">
<metadata>
Created by potrace 1.14, written by Peter Selinger 2001-2017
</metadata>
<g transform="translate(0.000000,559.000000) scale(0.100000,-0.100000)"
fill="#000000" stroke="none">
<path d="M1557 3584 c-1 -2 -45 -4 -96 -5 -52 -1 -110 -5 -130 -10 -20 -4 -47
-10 -61 -13 -101 -19 -252 -96 -347 -176 -63 -53 -164 -172 -192 -227 -22 -43
12 -25 81 42 135 130 335 233 508 261 19 3 46 7 60 10 41 7 221 6 285 -1 202
-24 416 -128 564 -275 119 -118 106 -51 -19 99 -137 164 -333 263 -573 289
-42 5 -79 7 -80 6z"/>
<path d="M397 3015 c-173 -47 -281 -218 -280 -445 1 -168 75 -317 194 -388
113 -68 314 -68 431 1 124 72 202 235 197 407 -7 193 -86 334 -228 402 -59 29
-76 32 -166 34 -58 1 -120 -3 -148 -11z m227 -44 c110 -43 187 -194 190 -370
1 -149 -18 -228 -80 -318 -51 -74 -128 -112 -217 -108 -107 5 -182 58 -231
160 -22 46 -28 67 -41 135 -7 34 -7 189 -1 220 3 14 9 39 12 55 22 100 103
201 184 228 49 17 138 15 184 -2z"/>
<path d="M1722 3008 c-33 -21 -35 -21 -112 -3 -92 21 -212 17 -275 -9 -47 -20
-103 -71 -117 -106 -15 -38 -11 -115 8 -155 34 -73 134 -133 329 -195 205 -66
262 -117 244 -216 -19 -101 -101 -156 -224 -150 -85 5 -136 22 -213 74 -50 34
-140 126 -150 153 -5 12 -32 11 -32 -1 0 -7 64 -184 95 -262 6 -16 10 -16 56
2 49 20 50 20 131 0 144 -34 257 -21 344 42 78 56 110 159 77 254 -29 86 -114
141 -323 209 -236 77 -294 134 -244 241 47 99 245 106 378 15 41 -28 103 -88
129 -125 10 -13 18 -16 29 -10 14 8 9 26 -34 137 -28 70 -54 127 -57 126 -3 0
-21 -10 -39 -21z"/>
<path d="M3889 3011 c-169 -54 -269 -209 -273 -425 -3 -137 42 -261 125 -346
81 -83 179 -116 317 -108 188 12 315 118 362 305 56 217 -19 447 -177 539 -92
55 -245 70 -354 35z m244 -46 c116 -48 188 -213 181 -412 -6 -192 -91 -336
-216 -371 -52 -14 -141 -6 -185 17 -73 37 -131 120 -159 224 -16 63 -16 252 1
316 34 132 109 217 210 242 42 10 125 2 168 -16z"/>
<path d="M2265 3013 c-90 -22 -205 -66 -205 -78 0 -8 3 -15 8 -16 70 -8 100
-22 112 -53 5 -13 8 -151 8 -307 0 -241 -3 -288 -16 -312 -18 -30 -40 -41 -94
-45 -11 -1 -18 -10 -18 -22 0 -20 5 -20 183 -18 154 3 182 5 182 18 0 10 -16
19 -44 25 -81 18 -82 22 -83 333 l0 272 44 40 c65 62 140 94 214 95 67 0 98
-15 138 -68 19 -26 20 -43 21 -300 0 -149 -1 -284 -3 -299 -6 -38 -35 -65 -81
-73 -31 -5 -39 -11 -38 -26 1 -18 11 -19 179 -19 169 0 177 1 175 19 -1 15
-11 22 -38 26 -20 4 -47 17 -60 31 -23 24 -23 27 -24 297 l-1 272 34 32 c52
48 143 92 204 99 67 7 117 -13 155 -62 l27 -37 1 -288 0 -287 -24 -25 c-13
-14 -40 -28 -60 -32 -27 -4 -37 -11 -38 -26 -2 -18 6 -19 176 -19 169 0 179 1
184 20 4 16 -2 20 -38 26 -27 4 -52 15 -66 30 -23 24 -23 27 -24 332 -1 267
-4 311 -18 339 -52 99 -164 136 -293 98 -50 -15 -145 -71 -194 -114 l-25 -23
-12 30 c-18 45 -81 101 -127 113 -55 15 -150 6 -210 -20 -27 -12 -77 -44 -112
-72 l-64 -51 0 76 c0 42 -3 75 -7 75 -5 -1 -17 -4 -28 -6z"/>
<path d="M4725 2986 c-109 -35 -128 -56 -62 -67 74 -12 72 -3 72 -349 0 -296
-1 -310 -20 -329 -18 -18 -45 -28 -82 -30 -7 -1 -13 -12 -13 -26 l0 -25 175 0
175 0 0 25 c0 21 -6 26 -40 31 -26 4 -48 16 -60 32 -19 23 -20 41 -20 293 l0
268 56 43 c103 78 261 109 328 64 59 -38 61 -46 63 -341 1 -148 0 -283 -3
-298 -8 -37 -42 -59 -105 -66 -4 -1 -9 -12 -11 -26 l-5 -25 178 0 179 0 0 25
c0 14 -6 25 -12 25 -7 0 -29 5 -50 10 -27 8 -39 18 -47 41 -6 18 -11 138 -11
300 -1 303 -7 334 -69 399 -44 47 -102 64 -192 58 -78 -6 -148 -36 -236 -102
l-63 -46 0 75 c0 54 -4 75 -12 74 -7 0 -58 -15 -113 -33z"/>
</g>
</svg>
